<?xml version="1.0" encoding="utf-8"?>
<!-- Generator: Adobe Illustrator 25.2.0, SVG Export Plug-In . SVG Version: 6.00 Build 0)  -->
<svg version="1.1" id="Capa_1" xmlns="http://www.w3.org/2000/svg" xmlns:xlink="http://www.w3.org/1999/xlink" x="0px" y="0px"
	 viewBox="0 0 99.2 34.2" style="enable-background:new 0 0 99.2 34.2;" xml:space="preserve">
<style type="text/css">
	.st0{fill-rule:evenodd;clip-rule:evenodd;fill:#E03D52;}
	.st1{filter:url(#Adobe_OpacityMaskFilter);}
	.st2{fill-rule:evenodd;clip-rule:evenodd;fill:#FFFFFF;}
	.st3{mask:url(#mask-2_12_);fill-rule:evenodd;clip-rule:evenodd;fill:#E03D52;}
	.st4{filter:url(#Adobe_OpacityMaskFilter_1_);}
	.st5{mask:url(#mask-2_11_);fill-rule:evenodd;clip-rule:evenodd;fill:#E03D52;}
	.st6{filter:url(#Adobe_OpacityMaskFilter_2_);}
	.st7{mask:url(#mask-2_10_);fill-rule:evenodd;clip-rule:evenodd;fill:#E03D52;}
	.st8{filter:url(#Adobe_OpacityMaskFilter_3_);}
	.st9{mask:url(#mask-2_9_);fill:none;stroke:#E03D52;stroke-width:1.2903;}
	.st10{filter:url(#Adobe_OpacityMaskFilter_4_);}
	.st11{mask:url(#mask-2_8_);fill:none;stroke:#E03D52;stroke-width:1.4219;}
	.st12{filter:url(#Adobe_OpacityMaskFilter_5_);}
	.st13{mask:url(#mask-2_7_);fill-rule:evenodd;clip-rule:evenodd;fill:#E03D52;}
	.st14{filter:url(#Adobe_OpacityMaskFilter_6_);}
	.st15{mask:url(#mask-4_2_);fill-rule:evenodd;clip-rule:evenodd;fill:#E03D52;}
	.st16{filter:url(#Adobe_OpacityMaskFilter_7_);}
	.st17{mask:url(#mask-6_2_);fill-rule:evenodd;clip-rule:evenodd;fill:#E03D52;}
	.st18{fill:none;stroke:#E03D52;stroke-width:1.2903;}
	.st19{fill:none;stroke:#E03D52;stroke-width:1.3058;}
	.st20{filter:url(#Adobe_OpacityMaskFilter_8_);}
	.st21{mask:url(#mask-2_21_);fill-rule:evenodd;clip-rule:evenodd;fill:#E03D52;}
	.st22{filter:url(#Adobe_OpacityMaskFilter_9_);}
	.st23{mask:url(#mask-2_20_);fill-rule:evenodd;clip-rule:evenodd;fill:#E03D52;}
	.st24{filter:url(#Adobe_OpacityMaskFilter_10_);}
	.st25{mask:url(#mask-2_19_);fill-rule:evenodd;clip-rule:evenodd;fill:#E03D52;}
	.st26{filter:url(#Adobe_OpacityMaskFilter_11_);}
	.st27{mask:url(#mask-2_18_);fill:none;stroke:#E03D52;stroke-width:1.2903;}
	.st28{filter:url(#Adobe_OpacityMaskFilter_12_);}
	.st29{mask:url(#mask-2_17_);fill:none;stroke:#E03D52;stroke-width:1.4219;}
	.st30{filter:url(#Adobe_OpacityMaskFilter_13_);}
	.st31{mask:url(#mask-2_16_);fill-rule:evenodd;clip-rule:evenodd;fill:#E03D52;}
	.st32{filter:url(#Adobe_OpacityMaskFilter_14_);}
	.st33{mask:url(#mask-4_1_);fill-rule:evenodd;clip-rule:evenodd;fill:#E03D52;}
	.st34{filter:url(#Adobe_OpacityMaskFilter_15_);}
	.st35{mask:url(#mask-6_3_);fill-rule:evenodd;clip-rule:evenodd;fill:#E03D52;}
	.st36{filter:url(#Adobe_OpacityMaskFilter_16_);}
	.st37{mask:url(#mask-2_5_);}
	.st38{filter:url(#Adobe_OpacityMaskFilter_17_);}
	.st39{mask:url(#mask-2_4_);}
	.st40{filter:url(#Adobe_OpacityMaskFilter_18_);}
	.st41{mask:url(#mask-2_3_);}
	.st42{fill:#E10098;}
	.st43{fill-rule:evenodd;clip-rule:evenodd;fill:#891B2E;}
	.st44{fill:#E03D52;}
	.st45{filter:url(#Adobe_OpacityMaskFilter_19_);}
	.st46{mask:url(#mask-2_6_);}
	.st47{filter:url(#Adobe_OpacityMaskFilter_20_);}
	.st48{mask:url(#mask-2_2_);}
	.st49{filter:url(#Adobe_OpacityMaskFilter_21_);}
	.st50{mask:url(#mask-2_1_);}
	.st51{fill:#FFFFFF;}
	.st52{filter:url(#Adobe_OpacityMaskFilter_22_);}
	.st53{mask:url(#mask-2_15_);}
	.st54{filter:url(#Adobe_OpacityMaskFilter_23_);}
	.st55{mask:url(#mask-2_14_);}
	.st56{filter:url(#Adobe_OpacityMaskFilter_24_);}
	.st57{mask:url(#mask-2_13_);}
	.st58{fill:none;}
	.st59{fill-rule:evenodd;clip-rule:evenodd;fill:#E10098;}
	.st60{fill-rule:evenodd;clip-rule:evenodd;fill:#52BFBA;}
	.st61{fill:#52BFBA;}
</style>
<g>
	<path class="st42" d="M43,6.7c1.3,0,2.6,0.2,3.7,0.7c1.2,0.5,2.2,1.1,3,2L47,11.8c-0.5-0.6-1.1-1-1.8-1.3s-1.5-0.5-2.3-0.5
		c-1.1,0-2.1,0.3-2.9,0.8c-0.8,0.5-1.5,1.2-1.9,2.1c-0.5,0.9-0.7,2-0.7,3.2c0,1.2,0.2,2.3,0.7,3.2c0.5,0.9,1.1,1.6,1.9,2.1
		c0.8,0.5,1.8,0.8,2.9,0.8c1.3,0,2.5-0.4,3.4-1.1c0.9-0.8,1.6-1.8,1.9-3.1h-5.3v-3.3h8.7l0.1,0.7c0,0.2,0,0.4,0.1,0.7
		c0,0.2,0,0.5,0,0.7c0,1.3-0.2,2.4-0.6,3.5s-1,2-1.8,2.8c-0.8,0.8-1.7,1.4-2.8,1.8c-1.1,0.4-2.2,0.6-3.5,0.6c-1.3,0-2.6-0.2-3.7-0.7
		c-1.1-0.5-2.1-1.1-3-2s-1.5-1.8-2-3s-0.7-2.4-0.7-3.7c0-1.4,0.2-2.6,0.7-3.8c0.5-1.1,1.1-2.1,2-3s1.8-1.5,3-2S41.7,6.7,43,6.7z"/>
	<path class="st42" d="M53.9,25.1v-12h3l0.2,1.7c0.9-1.3,2.1-2,3.6-2c0.5,0,1.1,0.1,1.6,0.2l-0.5,3c-0.5-0.2-0.9-0.2-1.4-0.2
		c-0.9,0-1.7,0.3-2.3,1s-0.9,1.7-0.9,2.9v5.3H53.9z"/>
	<path class="st42" d="M62.9,21.8c0-0.8,0.2-1.5,0.7-2.2c0.5-0.6,1.1-1.1,1.9-1.5s1.7-0.6,2.8-0.6c0.3,0,0.7,0,1,0.1
		c0.4,0,0.7,0.1,1.1,0.2c-0.3-1.3-1.2-2-2.9-2c-1,0-1.9,0.4-2.9,1.1L63.5,14c0.8-0.4,1.7-0.7,2.5-0.9c0.8-0.2,1.6-0.3,2.3-0.3
		c1.2,0,2.2,0.2,3,0.7c0.9,0.4,1.5,1.1,2,1.9c0.5,0.8,0.7,1.7,0.7,2.8v7h-2.9l-0.2-1.3c-0.5,0.5-1,0.8-1.6,1.1
		c-0.6,0.3-1.4,0.4-2.1,0.4c-1.2,0-2.2-0.3-3-1C63.3,23.7,62.9,22.8,62.9,21.8z M66.4,21c0,0.4,0.2,0.7,0.5,1
		c0.3,0.2,0.7,0.4,1.2,0.4c0.7,0,1.3-0.2,1.7-0.6c0.5-0.4,0.7-0.9,0.7-1.5v-0.2c-0.3-0.1-0.6-0.2-1-0.2c-0.3-0.1-0.7-0.1-1-0.1
		c-0.7,0-1.2,0.1-1.6,0.4C66.6,20.2,66.4,20.6,66.4,21z"/>
	<path class="st42" d="M76.9,13.1h3.3l0.1,1.3c0.5-0.5,1.1-0.9,1.8-1.1c0.7-0.3,1.4-0.4,2.2-0.4c1.1,0,2.1,0.3,3,0.8
		c0.9,0.5,1.6,1.3,2.1,2.2c0.5,0.9,0.8,2,0.8,3.2s-0.3,2.3-0.8,3.2c-0.5,0.9-1.2,1.7-2.1,2.2c-0.9,0.5-1.9,0.8-3,0.8
		c-0.8,0-1.5-0.1-2.1-0.4s-1.2-0.6-1.7-1.1v7.2h-3.5V13.1z M83.4,15.8c-0.9,0-1.6,0.3-2.2,0.9s-0.9,1.4-0.9,2.3s0.3,1.7,0.9,2.3
		s1.3,0.9,2.2,0.9s1.6-0.3,2.2-0.9s0.9-1.4,0.9-2.3s-0.3-1.7-0.9-2.3S84.3,15.8,83.4,15.8z"/>
	<path class="st42" d="M91.9,9c0-0.6,0.2-1,0.5-1.4C92.8,7.2,93.3,7,93.9,7c0.6,0,1,0.2,1.4,0.5c0.4,0.4,0.5,0.8,0.5,1.4
		c0,0.6-0.2,1-0.5,1.4c-0.4,0.4-0.8,0.5-1.4,0.5c-0.6,0-1-0.2-1.4-0.5S91.9,9.5,91.9,9z M92.1,25.1v-12h3.5v12H92.1z"/>
</g>
<path class="st59" d="M28.7,21.5v-9.1c0-1.7-0.9-3.3-2.4-4.1l-7.9-4.6c-1.5-0.9-3.3-0.9-4.8,0L5.8,8.3c-1.5,0.9-2.4,2.4-2.4,4.1v9.1
	c0,1.7,0.9,3.3,2.4,4.1l7.9,4.6c1.5,0.9,3.3,0.9,4.8,0l7.9-4.6C27.8,24.8,28.7,23.2,28.7,21.5z"/>
<path class="st2" d="M21.7,19.4v-4.1c0-0.8-0.4-1.5-1.1-1.8l-3.5-2c-0.7-0.4-1.5-0.4-2.1,0l-3.5,2c-0.7,0.4-1.1,1.1-1.1,1.8v4.1
	c0,0.8,0.4,1.5,1.1,1.8l3.5,2c0.7,0.4,1.5,0.4,2.1,0l3.5-2C21.3,20.8,21.7,20.1,21.7,19.4z"/>
<ellipse class="st42" cx="16.1" cy="17.3" rx="1.4" ry="1.4"/>
<path class="st51" d="M21.5,17.9l0-1.1l1.9,0c0.4,0,0.8,0.1,1.2,0.5c0.3,0.3,0.5,0.7,0.5,1.1v2.9c0,0.8-0.5,1.7-1.2,2.1l-6.5,3.7
	c-0.3,0.2-0.8,0.3-1.2,0.3c-0.4,0-0.9-0.1-1.2-0.3l-6.5-3.7c-0.7-0.4-1.2-1.3-1.2-2.1v-7.5c0-0.8,0.5-1.7,1.2-2.1L14.6,8
	c0,0,0,0,0,0c0-0.8,0.6-1.4,1.4-1.4c0.8,0,1.4,0.6,1.4,1.4c0,0.6-0.4,1.1-0.9,1.3V11v0.7l-1.1,0V11V9.3C15.3,9.3,15.2,9.1,15,9
	l-6.2,3.6c-0.4,0.2-0.7,0.7-0.7,1.2v7.5c0,0.4,0.3,1,0.7,1.2l6.5,3.7c0.4,0.2,1,0.2,1.3,0l6.5-3.7c0.4-0.2,0.7-0.8,0.7-1.2v-2.9
	c0-0.1-0.1-0.3-0.2-0.4c-0.1-0.1-0.2-0.2-0.4-0.2L21.5,17.9z"/>
</svg>
